PathFileType	4	(x/y/z)	S10_PSF_T09
DataRate	CameraRate	NumFrames	NumMarkers	Units	OrigDataRate	OrigDataStartFrame	OrigNumFrames
240	240	4	51	mm	240	267	427
Frame#	Time	Sternum			R.Acromium			L.Acromium			Top.Head			R.ASIS			L.ASIS			R.PSIS			L.PSIS			R.Great.Tro			L.Great.Tro			R.Iliac.Crest			L.Iliac.Crest			V.Sacral			R.Thigh.Upper.Post			R.Thigh.Lower.Ant			R.Thigh.Lower.Post			R.Thigh.Upper.Ant			R.Knee.Lat			R.Knee.Med			R.Shank.Upper.Post			R.Shank.Lower.Ant			R.Shank.Lower.Post			R.Shank.Upper.Ant			R.Ankle.Lat			R.Ankle.Med			R.Heel.Upper			R.Heel.Med			R.Heel.Lat			R.Toe.Lat			R.Toe.Med			R.Toe.Tip			L.Thigh.Upper.Post			L.Thigh.Lower.Ant			L.Thigh.Lower.Post			L.Thigh.Upper.Ant			L.Knee.Lat			L.Knee.Med			L.Shank.Upper.Post			L.Shank.Lower.Ant			L.Shank.Lower.Post			L.Shank.Upper.Ant			L.Ankle.Lat			L.Ankle.Med			L.Heel.Upper			L.Heel.Med			L.Heel.Lat			L.Toe.Lat			L.Toe.Med			L.Toe.Tip			Cervical.Spine			Back			
		X1	Y1	Z1	X2	Y2	Z2	X3	Y3	Z3	X4	Y4	Z4	X5	Y5	Z5	X6	Y6	Z6	X7	Y7	Z7	X8	Y8	Z8	X9	Y9	Z9	X10	Y10	Z10	X11	Y11	Z11	X12	Y12	Z12	X13	Y13	Z13	X14	Y14	Z14	X15	Y15	Z15	X16	Y16	Z16	X17	Y17	Z17	X18	Y18	Z18	X19	Y19	Z19	X20	Y20	Z20	X21	Y21	Z21	X22	Y22	Z22	X23	Y23	Z23	X24	Y24	Z24	X25	Y25	Z25	X26	Y26	Z26	X27	Y27	Z27	X28	Y28	Z28	X29	Y29	Z29	X30	Y30	Z30	X31	Y31	Z31	X32	Y32	Z32	X33	Y33	Z33	X34	Y34	Z34	X35	Y35	Z35	X36	Y36	Z36	X37	Y37	Z37	X38	Y38	Z38	X39	Y39	Z39	X40	Y40	Z40	X41	Y41	Z41	X42	Y42	Z42	X43	Y43	Z43	X44	Y44	Z44	X45	Y45	Z45	X46	Y46	Z46	X47	Y47	Z47	X48	Y48	Z48	X49	Y49	Z49	X50	Y50	Z50	X51	Y51	Z51	

267	1.1083	-8.4273	1236.2	323.67	-97.033	1400.2	486.72	-157.99	1412.2	186.43	-180.55	1708.5	352.56	-57.897	963.65	450.48	-67.942	995.44	221.76	-262.66	989.28	368.5	-261.98	999.22	287.38	-142.88	890.03	524.92	-123.36	935.79	161.44	-148.06	1044.5	499.22	-139.1	1066	197.77	-282.38	958.81	331.23	-200.27	691.78	509.71	-172.2	601.34	469.65	-236.31	611.19	494.42	-131.83	682.65	482.93	-293.02	496.58	454.7	-291.67	505.82	326.87	-458.05	328.16	454.61	-429.25	241.94	435.33	-490.52	262.09	447.28	-388.63	307.37	443.18	-525.96	154.63	422.61	-514.28	163.11	344.7	-607.88	125.66	374.28	-605.23	98.177	346.77	-611.15	99.795	407.9	-453.04	39.249	456.95	-418.92	41.488	348.63	-362.07	45.524	391.73	-62.419	657.31	165.32	33.783	608	192.99	-30.113	570.07	189.4	7.9825	692.06	169.77	34.11	504.85	201.91	37.008	506.16	332.16	45.957	282.51	205.68	139.65	224.97	221.55	76.602	211.16	216.27	109.53	295.26	211.38	149.6	107.85	228.7	160.32	122.87	315.07	98.725	67.978	277.67	118	39.903	311.72	110.72	39.736	247.54	281.11	70.322	205.77	306.89	89.38	310.04	352.73	116.12	262.17	-203.19	1460.9	361.57	-290.03	1253	367.23
268	1.1125	-2.1966	1236.1	323.16	-91.283	1399.9	486.14	-151.93	1411.9	185.74	-175	1708.2	352.06	-51.452	963.4	449.99	-61.604	995.43	221.3	-256.28	988.95	368.21	-255.63	998.97	287.08	-136.35	889.49	524.42	-116.93	935.87	161.05	-141.63	1044.2	498.79	-132.82	1065.8	197.35	-275.99	958.49	330.89	-193.31	691.1	509.18	-164.82	600.71	469.34	-229.01	610.35	494.01	-124.84	682.23	482.51	-285.35	495.53	454.5	-283.97	504.7	326.63	-452.59	329.34	454.81	-425.07	242.64	435.41	-486.02	263.74	447.6	-383.45	307.52	443.27	-523.06	156.8	422.98	-511.26	164.96	345.11	-605.07	129.2	374.56	-603.17	101.94	346.98	-609.1	103.43	408.09	-452.51	39.501	457.05	-418.49	41.429	348.81	-361.84	45.336	391.72	-55.572	657.47	165.37	40.555	608.26	193.56	-23.313	570.3	189.69	14.787	692.29	170.14	40.889	505.11	202.4	43.306	506.56	332.49	50.64	282.7	205.9	143.64	224.14	222.04	80.522	211.03	216.36	114.3	294.78	211.96	151.72	107.22	228.79	162.69	121.68	315.39	100.1	68.687	277.95	118.69	40.025	311.83	111.35	40.206	247.64	282.32	67.314	205.86	308.58	85.708	310.14	355.02	111.45	262.13	-197.27	1460.6	360.81	-283.91	1252.6	366.58
269	1.1167	4.0523	1236	322.65	-85.539	1399.7	485.56	-145.85	1411.6	185.04	-169.44	1707.9	351.56	-45.006	963.22	449.5	-55.26	995.47	220.84	-249.89	988.68	367.91	-249.28	998.8	286.79	-129.79	889	523.92	-110.47	936.03	160.65	-135.18	1044	498.36	-126.53	1065.8	196.95	-269.59	958.24	330.54	-186.22	690.42	508.63	-157.27	600.1	469.01	-221.54	609.48	493.57	-117.72	681.84	482.06	-277.45	494.44	454.32	-276.04	503.53	326.39	-446.92	330.56	454.97	-420.68	243.39	435.51	-481.32	265.45	447.9	-378.07	307.71	443.37	-519.94	159.06	423.33	-508	166.89	345.5	-601.98	132.93	374.8	-600.87	105.88	347.14	-606.82	107.28	408.25	-451.93	39.811	457.14	-418.04	41.372	348.98	-361.6	45.144	391.69	-48.777	657.69	165.42	47.275	608.57	194.1	-16.561	570.58	189.94	21.54	692.57	170.49	47.644	505.43	202.86	49.579	507	332.81	55.305	282.98	206.07	147.59	223.37	222.5	84.401	210.99	216.42	119.05	294.36	212.5	153.75	106.64	228.86	164.99	120.58	315.65	101.38	69.406	278.2	119.31	40.196	311.91	111.91	40.703	247.7	283.42	64.407	205.89	310.17	82.131	310.19	357.19	106.86	262.04	-191.35	1460.3	360.05	-277.78	1252.3	365.9
270	1.1208	10.317	1236	322.13	-79.802	1399.6	484.97	-139.76	1411.3	184.33	-163.88	1707.7	351.05	-38.567	963.1	449	-48.915	995.58	220.39	-243.51	988.47	367.62	-242.92	998.7	286.49	-123.21	888.55	523.39	-104.01	936.25	160.25	-128.74	1043.9	497.91	-120.21	1065.8	196.55	-263.19	958.06	330.19	-179	689.74	508.06	-149.55	599.52	468.66	-213.9	608.6	493.12	-110.49	681.49	481.58	-269.31	493.32	454.15	-267.88	502.31	326.16	-441.04	331.81	455.09	-416.07	244.19	435.63	-476.4	267.21	448.17	-372.5	307.94	443.48	-516.59	161.41	423.66	-504.51	168.89	345.87	-598.59	136.83	374.98	-598.32	110.02	347.25	-604.27	111.35	408.35	-451.31	40.189	457.21	-417.55	41.323	349.13	-361.35	44.947	391.64	-42.034	657.97	165.44	53.943	608.94	194.59	-9.8563	570.91	190.16	28.239	692.91	170.82	54.373	505.8	203.28	55.829	507.5	333.1	59.949	283.33	206.2	151.49	222.66	222.93	88.231	211.03	216.45	123.78	294	212.98	155.67	106.13	228.9	167.22	119.57	315.88	102.58	70.121	278.41	119.86	40.407	311.96	112.41	41.218	247.74	284.42	61.627	205.88	311.65	78.677	310.19	359.24	102.4	261.9	-185.43	1460.1	359.27	-271.66	1252	365.22
